<?xml version="1.0" standalone="no"?>
<!DOCTYPE svg PUBLIC "-//W3C//DTD SVG 20010904//EN"
 "http://www.w3.org/TR/2001/REC-SVG-20010904/DTD/svg10.dtd">
<svg version="1.0" xmlns="http://www.w3.org/2000/svg"
 width="512.000000pt" height="512.000000pt" viewBox="0 0 512.000000 512.000000"
 preserveAspectRatio="xMidYMid meet">
<metadata>
Created by potrace 1.14, written by Peter Selinger 2001-2017
</metadata>
<g transform="translate(0.000000,512.000000) scale(0.100000,-0.100000)"
fill="#000000" stroke="none">
<path d="M2245 4344 c-166 -40 -250 -80 -326 -154 -62 -61 -105 -141 -115
-215 -15 -106 -15 -107 33 -151 40 -37 49 -41 86 -37 27 3 77 25 142 63 55 32
123 65 150 73 58 17 179 15 256 -3 174 -42 402 -175 578 -337 57 -52 201 -225
201 -241 0 -6 3 -12 8 -14 9 -4 45 -67 79 -138 35 -74 69 -202 73 -275 6 -119
5 -160 -5 -158 -5 1 -62 20 -125 43 -175 62 -407 124 -545 145 -151 24 -174
25 -370 30 -251 5 -402 -15 -607 -81 -267 -87 -499 -251 -659 -466 -73 -99
-109 -168 -151 -291 -28 -80 -32 -107 -34 -212 -5 -277 79 -489 271 -680 137
-138 277 -230 448 -296 29 -11 61 -24 72 -28 45 -20 183 -62 252 -76 98 -20
113 -23 223 -40 52 -8 124 -17 160 -20 36 -3 79 -8 95 -10 90 -13 405 -13 475
0 41 8 89 17 105 20 61 10 92 16 155 31 36 8 76 16 90 18 34 5 237 60 352 95
332 102 536 188 583 243 23 27 25 37 21 86 -7 73 -28 94 -103 103 -62 7 -444
3 -479 -5 -11 -2 -52 -7 -90 -10 -38 -4 -85 -9 -104 -11 -19 -3 -57 -7 -85
-10 -27 -3 -59 -8 -70 -10 -20 -5 -28 -6 -175 -25 -47 -6 -96 -13 -110 -15
-14 -3 -50 -7 -80 -11 -30 -3 -63 -8 -73 -10 -10 -2 -50 -6 -90 -9 -40 -3 -94
-8 -122 -10 -133 -12 -344 -5 -495 15 -391 53 -751 228 -846 411 -65 127 -43
365 44 457 6 7 12 17 12 21 0 17 132 137 197 179 60 39 98 59 231 119 99 44
347 113 482 133 41 6 86 13 100 16 36 6 154 15 235 18 53 2 101 -5 195 -30
164 -42 244 -73 364 -140 144 -81 236 -152 372 -288 168 -170 268 -310 372
-526 52 -109 42 -103 177 -116 28 -3 60 -7 73 -9 15 -3 22 1 23 13 0 9 2 26 5
37 13 59 5 453 -10 531 -2 12 -7 45 -11 75 -4 30 -8 63 -10 74 -11 82 -67 313
-104 424 -133 402 -359 815 -584 1068 -325 366 -745 604 -1087 618 -58 2 -114
2 -125 -1z"/>
</g>
</svg>
